<?xml version="1.0" standalone="no"?>
<!DOCTYPE svg PUBLIC "-//W3C//DTD SVG 20010904//EN"
        "http://www.w3.org/TR/2001/REC-SVG-20010904/DTD/svg10.dtd">
<svg version="1.0" xmlns="http://www.w3.org/2000/svg"
     width="1024.000000pt" height="1024.000000pt" viewBox="0 0 1024.000000 1024.000000"
     preserveAspectRatio="xMidYMid meet">
    <metadata>
        Created by potrace 1.14, written by Peter Selinger 2001-2017
    </metadata>
    <g transform="translate(0.000000,1024.000000) scale(0.100000,-0.100000)"
       fill="#000000" stroke="none">
        <path d="M0 5120 l0 -5120 5120 0 5120 0 0 5120 0 5120 -5120 0 -5120 0 0
-5120z m8825 3406 c65 -30 112 -78 143 -145 21 -45 24 -64 20 -120 -6 -82 -33
-136 -94 -190 -85 -75 -46 -72 -995 -69 l-844 3 -55 31 c-67 38 -115 97 -136
171 -19 65 -13 117 20 188 28 60 63 95 131 129 l50 25 855 1 855 0 50 -24z
m-150 -800 c103 -48 159 -134 160 -246 0 -120 -78 -227 -190 -259 -29 -9 -232
-11 -750 -9 -706 3 -710 3 -750 25 -92 50 -145 137 -145 243 0 124 74 225 190
261 14 4 342 8 730 8 l705 1 50 -24z m148 -789 c52 -24 115 -83 139 -131 26
-50 34 -143 19 -198 -18 -65 -70 -129 -132 -163 l-54 -30 -875 0 c-818 0 -877
1 -907 18 -144 78 -198 236 -128 372 35 68 84 111 157 136 50 18 99 19 898 16
785 -2 848 -3 883 -20z m26 -812 c97 -54 149 -152 138 -263 -6 -75 -34 -129
-92 -180 -86 -75 -59 -73 -1001 -70 l-830 3 -59 30 c-175 90 -203 321 -54 448
80 69 32 66 984 64 l860 -2 54 -30z m-3 -792 c82 -44 134 -124 142 -219 7 -87
-18 -155 -78 -214 -84 -85 -29 -81 -1006 -78 l-859 3 -41 22 c-82 44 -154 157
-154 242 0 43 27 123 54 159 29 39 88 85 131 100 21 7 303 10 900 9 l870 -2
41 -22z m-4748 -28 c103 -31 186 -128 199 -233 12 -102 -47 -212 -145 -270
l-47 -27 -965 0 -965 0 -41 22 c-45 24 -103 84 -131 135 -27 51 -25 170 5 228
42 79 88 118 177 146 31 10 246 13 951 13 788 1 917 -1 962 -14z m4699 -750
c60 -18 135 -80 166 -139 31 -59 31 -184 0 -242 -28 -53 -74 -99 -127 -127
l-41 -22 -870 0 -870 0 -50 27 c-85 45 -135 116 -151 215 -8 52 16 136 55 190
32 44 102 91 154 103 18 5 404 8 858 9 705 1 833 -1 876 -14z m-4362 -39 c60
-28 127 -99 143 -154 40 -133 -15 -272 -133 -335 l-40 -22 -1260 -3 c-1381 -3
-1305 -6 -1384 57 -20 16 -50 53 -66 83 -26 45 -30 64 -30 128 0 90 27 153 89
206 77 66 -6 62 1376 63 l1255 1 50 -24z m4510 -744 c61 -28 98 -62 133 -122
23 -39 27 -56 27 -125 0 -59 -5 -90 -20 -120 -25 -50 -80 -105 -130 -130 -39
-19 -66 -20 -1040 -20 l-1000 0 -41 22 c-97 52 -163 171 -151 274 14 117 104
216 218 238 24 5 474 8 999 8 l955 -2 50 -23z m-4293 -12 c53 -15 117 -67 152
-124 35 -57 46 -149 26 -221 -17 -60 -82 -132 -145 -161 l-50 -24 -1510 0
c-1447 0 -1512 1 -1551 19 -58 26 -106 72 -134 128 -20 38 -25 63 -25 123 0
64 4 83 30 129 32 59 91 108 153 128 49 15 2998 18 3054 3z m4450 -772 c170
-101 186 -336 30 -455 -23 -18 -59 -37 -80 -43 -51 -14 -2183 -14 -2234 0 -53
15 -118 68 -153 125 -27 44 -30 56 -30 135 0 79 3 91 30 135 35 57 87 101 141
120 33 12 222 14 1144 12 l1105 -2 47 -27z m-4116 -15 c53 -28 99 -74 127
-127 17 -32 22 -58 22 -121 0 -96 -21 -142 -89 -202 -90 -79 63 -74 -1916 -71
l-1765 3 -51 27 c-172 90 -204 299 -69 435 90 89 -82 82 1925 80 l1775 -2 41
-22z m358 -763 c138 -70 191 -231 122 -367 -31 -61 -67 -95 -136 -127 l-55
-26 -2142 0 c-2093 0 -2142 0 -2186 19 -63 27 -126 87 -153 146 -64 137 7 308
152 365 48 19 96 19 2199 17 l2150 -2 49 -25z m3932 15 c67 -20 128 -74 164
-146 40 -79 40 -142 1 -224 -34 -72 -68 -105 -141 -139 l-55 -26 -1335 0
c-1320 0 -1336 1 -1380 21 -64 29 -106 64 -134 112 -91 156 -22 341 151 403
59 21 2658 20 2729 -1z"/>
        <path d="M7331 6823 c-41 -20 -78 -75 -86 -128 -8 -51 26 -120 74 -152 32 -22
44 -23 206 -23 163 0 174 1 206 23 19 12 44 42 57 65 l23 42 120 0 119 0 11
-27 c6 -16 20 -39 32 -51 44 -47 65 -52 245 -52 159 0 171 1 203 23 96 64 90
219 -11 276 -34 19 -53 21 -195 21 -177 0 -207 -8 -252 -66 l-25 -34 -128 0
c-128 0 -129 0 -150 28 -12 15 -38 37 -58 49 -34 21 -49 23 -197 23 -128 0
-167 -4 -194 -17z"/>
        <path d="M2447 3628 c-78 -45 -99 -159 -44 -232 44 -57 76 -66 245 -66 83 0
163 5 179 11 37 14 79 54 93 90 l12 29 219 0 219 0 14 -34 c8 -18 31 -46 52
-62 l37 -29 178 0 c195 0 204 2 253 69 30 40 29 139 -1 182 -40 56 -72 64
-253 64 -180 0 -219 -10 -249 -62 l-16 -28 -232 0 -232 0 -22 31 c-36 51 -69
59 -251 59 -149 0 -166 -2 -201 -22z"/>
    </g>
</svg>
